<svg width="13" height="13" viewBox="0 0 13 13" fill="none" xmlns="http://www.w3.org/2000/svg">
<g clip-path="url(#clip0_35_404)">
<path d="M5.95831 2.16663H2.16665C1.87933 2.16663 1.60378 2.28076 1.40061 2.48393C1.19745 2.68709 1.08331 2.96264 1.08331 3.24996V10.8333C1.08331 11.1206 1.19745 11.3962 1.40061 11.5993C1.60378 11.8025 1.87933 11.9166 2.16665 11.9166H9.74998C10.0373 11.9166 10.3128 11.8025 10.516 11.5993C10.7192 11.3962 10.8333 11.1206 10.8333 10.8333V7.04163" stroke="#303030" stroke-linecap="round" stroke-linejoin="round"/>
<path d="M10.0208 1.35413C10.2363 1.13864 10.5286 1.01758 10.8333 1.01758C11.1381 1.01758 11.4303 1.13864 11.6458 1.35413C11.8613 1.56962 11.9824 1.86188 11.9824 2.16663C11.9824 2.47137 11.8613 2.76364 11.6458 2.97913L6.49998 8.12496L4.33331 8.66663L4.87498 6.49996L10.0208 1.35413Z" stroke="#303030" stroke-linecap="round" stroke-linejoin="round"/>
</g>
<defs>
<clipPath id="clip0_35_404">
<rect width="13" height="13" fill="white"/>
</clipPath>
</defs>
</svg>
