<svg width="13" height="4" viewBox="0 0 13 4" fill="none" xmlns="http://www.w3.org/2000/svg">
<path d="M1.394 0.84C1.742 0.84 2.024 0.948 2.24 1.164C2.456 1.38 2.564 1.662 2.564 2.01C2.564 2.358 2.456 2.64 2.24 2.856C2.024 3.072 1.742 3.18 1.394 3.18C1.046 3.18 0.764 3.072 0.548 2.856C0.332 2.64 0.224 2.358 0.224 2.01C0.224 1.662 0.332 1.38 0.548 1.164C0.764 0.948 1.046 0.84 1.394 0.84ZM6.17525 0.84C6.52325 0.84 6.80525 0.948 7.02125 1.164C7.23725 1.38 7.34525 1.662 7.34525 2.01C7.34525 2.358 7.23725 2.64 7.02125 2.856C6.80525 3.072 6.52325 3.18 6.17525 3.18C5.82725 3.18 5.54525 3.072 5.32925 2.856C5.11325 2.64 5.00525 2.358 5.00525 2.01C5.00525 1.662 5.11325 1.38 5.32925 1.164C5.54525 0.948 5.82725 0.84 6.17525 0.84ZM10.9565 0.84C11.3045 0.84 11.5865 0.948 11.8025 1.164C12.0185 1.38 12.1265 1.662 12.1265 2.01C12.1265 2.358 12.0185 2.64 11.8025 2.856C11.5865 3.072 11.3045 3.18 10.9565 3.18C10.6085 3.18 10.3265 3.072 10.1105 2.856C9.8945 2.64 9.7865 2.358 9.7865 2.01C9.7865 1.662 9.8945 1.38 10.1105 1.164C10.3265 0.948 10.6085 0.84 10.9565 0.84Z" fill="#555555"/>
</svg>
