<svg width="13" height="13" viewBox="0 0 13 13" fill="none" xmlns="http://www.w3.org/2000/svg">
<path d="M9.20833 11.375V10.2917C9.20833 9.71703 8.98006 9.16593 8.57373 8.7596C8.1674 8.35327 7.6163 8.125 7.04166 8.125H2.70833C2.1337 8.125 1.58259 8.35327 1.17627 8.7596C0.769937 9.16593 0.541664 9.71703 0.541664 10.2917V11.375" stroke="black" stroke-linecap="round" stroke-linejoin="round"/>
<path d="M4.875 5.95833C6.07162 5.95833 7.04167 4.98828 7.04167 3.79167C7.04167 2.59505 6.07162 1.625 4.875 1.625C3.67839 1.625 2.70834 2.59505 2.70834 3.79167C2.70834 4.98828 3.67839 5.95833 4.875 5.95833Z" stroke="black" stroke-linecap="round" stroke-linejoin="round"/>
<path d="M12.4583 11.375V10.2917C12.458 9.81162 12.2982 9.34527 12.0041 8.96586C11.71 8.58644 11.2982 8.31545 10.8333 8.19543" stroke="black" stroke-linecap="round" stroke-linejoin="round"/>
<path d="M8.66666 1.69543C9.13272 1.81476 9.54581 2.08581 9.8408 2.46585C10.1358 2.84589 10.2959 3.3133 10.2959 3.79439C10.2959 4.27548 10.1358 4.74289 9.8408 5.12293C9.54581 5.50297 9.13272 5.77402 8.66666 5.89335" stroke="black" stroke-linecap="round" stroke-linejoin="round"/>
</svg>
